{"title":"War - Live Disc 2 FLAC","uid":4833542,"size":298139701,"categoryP":"audio","categoryS":"flac","magnet":"?xt=urn:btih:24d660eec7a5f024ee97bff8b95902c45bfdf6b7&amp;dn=War+-+Live+Disc+2+FLAC&amp;tr=udp%3A%2F%2Ftracker.openbittorrent.com%3A80&amp;tr=udp%3A%2F%2Fopen.demonii.com%3A1337&amp;tr=udp%3A%2F%2Ftracker.coppersurfer.tk%3A6969&amp;tr=udp%3A%2F%2Fexodus.desync.com%3A6969","seeders":1,"leechers":0,"uploader":null,"files":6,"time":1239223665,"description":"Exact Audio Copy V0.99 prebeta 3 from 28. July 2007\n\nEAC extraction logfile from 8. April 2009, 11:43\n\nWar / War Live - Disc 2\n\nUsed drive  : ATAPI   DVD D  DH16D3P   Adapter: 0  ID: 1\n\nRead mode               : Secure\nUtilize accurate stream : Yes\nDefeat audio cache      : No\nMake use of C2 pointers : No\n\nRead offset correction                      : 6\nOverread into Lead-In and Lead-Out          : No\nFill up missing offset samples with silence : Yes\nDelete leading and trailing silent blocks   : No\nNull samples used in CRC calculations       : No\nUsed interface                              : Installed external ASPI interface\nGap handling                                : Not detected, thus appended to previous track\n\nUsed output format : Internal WAV Routines\nSample format      : 44.100 Hz; 16 Bit; Stereo\n\n\nTOC of the extracted CD\n\n     Track |   Start  |  Length  | Start sector | End sector \n    ---------------------------------------------------------\n        1  |  0:00.32 | 10:06.13 |        32    |    45494   \n        2  | 10:06.45 |  8:29.65 |     45495    |    83734   \n        3  | 18:36.35 |  2:58.05 |     83735    |    97089   \n        4  | 21:34.40 | 20:29.70 |     97090    |   189334   \n\n\nTrack  1\n\n     Filename E:MusicWarWar Live - Disc 2War - War Live - Disc 2 - 01. All Day Music.wav\n\n     Peak level 97.2 %\n     Track quality 100.0 %\n     Copy CRC 0F86853D\n     Accurately ripped (confidence 2)  [B5018EB5]\n     Copy OK\n\nTrack  2\n\n     Filename E:MusicWarWar Live - Disc 2War - War Live - Disc 2 - 02. Ballero.wav\n\n     Peak level 100.0 %\n     Track quality 100.0 %\n     Copy CRC 339E1B8C\n     Accurately ripped (confidence 2)  [705A45B4]\n     Copy OK\n\nTrack  3\n\n     Filename E:MusicWarWar Live - Disc 2War - War Live - Disc 2 - 03. Lonely Feelin'.wav\n\n     Peak level 100.0 %\n     Track quality 100.0 %\n     Copy CRC DB5DC159\n     Accurately ripped (confidence 2)  [14E5A50E]\n     Copy OK\n\nTrack  4\n\n     Filename E:MusicWarWar Live - Disc 2War - War Live - Disc 2 - 04. Get Down.wav\n\n     Peak level 100.0 %\n     Track quality 100.0 %\n     Copy CRC 6194F896\n     Accurately ripped (confidence 2)  [64A3E827]\n     Copy OK\n\n\nAll tracks accurately ripped\n\nNo errors occurred\n\nEnd of status report\n","torrent":{"xt":"urn:btih:24d660eec7a5f024ee97bff8b95902c45bfdf6b7","amp;dn":"War+-+Live+Disc+2+FLAC","amp;tr":["udp%3A%2F%2Ftracker.openbittorrent.com%3A80","udp%3A%2F%2Fopen.demonii.com%3A1337","udp%3A%2F%2Ftracker.coppersurfer.tk%3A6969","udp%3A%2F%2Fexodus.desync.com%3A6969"],"infoHash":"24d660eec7a5f024ee97bff8b95902c45bfdf6b7","infoHashBuffer":{"type":"Buffer","data":[36,214,96,238,199,165,240,36,238,151,191,248,185,89,2,196,91,253,246,183]},"announce":[],"urlList":[]}}